<?xml version="1.0" encoding="utf-8"?>
<!-- Generator: Adobe Illustrator 21.0.0, SVG Export Plug-In . SVG Version: 6.00 Build 0)  -->
<svg version="1.1" id="Layer_1" xmlns="http://www.w3.org/2000/svg" xmlns:xlink="http://www.w3.org/1999/xlink" x="0px" y="0px"
	 width="90.3px" height="96.3px" viewBox="0 0 90.3 96.3" style="enable-background:new 0 0 90.3 96.3;" xml:space="preserve">
<style type="text/css">
	.st0{fill:#FFFFFF;}
</style>
<g>
	<path class="st0" d="M86.4,67.3c-6.5-5.6-16.1,1.8-21.7,5.2c-6.7,4.2-13.3,8.8-21.4,9.7c-13.7,1.4-26.1-14.8-26.9-27.3
		c-0.8-11.5-0.7-23,8.7-31.1c6-5.2,14.1-7.7,21.9-8.7c1.8-0.2,4.9-0.9,6.7-0.4c4,1.3,4.1,6.1,7.8,8.4c7.4,4.4,12.9-1.4,9.9-8.8
		c-3-7.2-11.7-11.7-18.8-13.5c-15.7-4-33.1,7.1-43.2,18.6C-1.8,32-2.3,52.3,4.2,67.1c6.7,15.3,22.1,30.8,40,29
		c10.2-1,20.4-3.8,29.6-8.4C80.4,84.4,98,75.8,86.4,67.3C84.3,65.5,88.7,69,86.4,67.3z"/>
</g>
</svg>
