<?xml version="1.0" encoding="utf-8"?>
<!-- Generator: Adobe Illustrator 21.0.0, SVG Export Plug-In . SVG Version: 6.00 Build 0)  -->
<svg version="1.1" id="Layer_1" xmlns="http://www.w3.org/2000/svg" xmlns:xlink="http://www.w3.org/1999/xlink" x="0px" y="0px"
	 width="53.8px" height="45.3px" viewBox="0 0 53.8 45.3" style="enable-background:new 0 0 53.8 45.3;" xml:space="preserve">
<style type="text/css">
	.st0{fill:#FFFFFF;}
</style>
<g>
	<path class="st0" d="M43.5,6.6c-1.5-4-1.3-6.2,0.7-6.5c1.6-0.3,3.4,0.7,5.5,3c1.1,1.3,1.9,2.8,2.4,4.4c0.9,2.5,1.5,5.8,1.6,9.9
		c0.2,4.2-0.1,7.4-0.7,9.7c-0.7,2.5-2.1,8.4-4.6,10c-2.5,1.6-5.2,2.5-8.1,2.7c-2.2,0.2-3.9,0.2-5,0c-1.1-0.3-2.7-0.9-4.7-2.1
		L25.9,35l-3.9,5c-1.7,2.1-3,3.5-3.9,4.2c-0.9,0.7-2.1,1-3.5,1.1c-4.9,0.3-8.6-2-11.1-7c-2.5-5-3.7-12.2-3.4-21.5
		c0.1-4.2,0.7-6.8,1.3-8.2c4.9-11.4,11.1,0.3,11.9,1.4c0.8,1,1.3,1.9,1.4,2.9c0.1,0.9,0,2.5-0.3,4.9c-0.4,3.2-0.4,6.2,0,9.2
		c0.4,3,0.9,4.6,1.7,4.8c0.3,0.1,0.7-0.3,1.3-0.9c0.6-0.7,1.1-1.5,1.7-2.5c0.7-1.5,1.2-3,1.5-4.7c0.3-1.7,0.4-4.2,0.4-7.5
		c-0.1-3.9,0-6.3,0.2-7.2c0.2-0.9,0.8-1.4,1.8-1.6c1.8-0.4,3,0,3.8,1.2s1.4,3.9,2,8.1c0.8,5.4,2,9.4,3.4,12c0.9,1.7,1.7,2.8,2.3,3.2
		c0.6,0.4,1.6,0.6,2.9,0.5c2.2-0.2,4-1.2,5.4-3.3c1.3-2,2.1-4.4,2.4-7.2c0.3-2.8,0.2-5.5,0-8.3C44.8,10.8,44.3,8.5,43.5,6.6z"/>
</g>
</svg>
