<?xml version="1.0" encoding="utf-8"?>
<!-- Generator: Adobe Illustrator 21.0.0, SVG Export Plug-In . SVG Version: 6.00 Build 0)  -->
<svg version="1.1" id="Layer_1" xmlns="http://www.w3.org/2000/svg" xmlns:xlink="http://www.w3.org/1999/xlink" x="0px" y="0px"
	 width="27px" height="36.7px" viewBox="0 0 27 36.7" style="enable-background:new 0 0 27 36.7;" xml:space="preserve">
<style type="text/css">
	.st0{fill:#FFFFFF;}
</style>
<g>
	<path class="st0" d="M17.2,0.7c16.7-4.6,6.3,16.4,3.2,22.4c-0.6,1.1-4.3,6.4-3.5,7.4c1.7,2.2,7.5-1.8,9.2,0.5
		c3.6,4.6-5.3,4-7.9,4.3c-3.2,0.3-14.4,2.8-17,0.3c-6.8-6.7,14.3-21.8,11.4-29.1C12,4.8-1.1,9.4,1.2,3.2C2.1,0.9,15.2,1.2,17.2,0.7
		C20.6-0.3,15.9,1,17.2,0.7z M19.7,15c0,1-13,14.3-11.6,16.2C8.9,32.4,19.9,17.6,19.7,15C19.7,14.1,19.7,15.2,19.7,15z"/>
</g>
</svg>
