<?xml version="1.0" encoding="utf-8"?>
<!-- Generator: Adobe Illustrator 21.0.0, SVG Export Plug-In . SVG Version: 6.00 Build 0)  -->
<svg version="1.1" id="Layer_1" xmlns="http://www.w3.org/2000/svg" xmlns:xlink="http://www.w3.org/1999/xlink" x="0px" y="0px"
	 width="61.7px" height="63px" viewBox="0 0 61.7 63" style="enable-background:new 0 0 61.7 63;" xml:space="preserve">
<style type="text/css">
	.st0{fill:#FFFFFF;}
</style>
<g>
	<path class="st0" d="M17.1,1.3c3.1-1.3,6.8-1.6,11-0.9c4.2,0.7,8.4,2,12.4,3.9c4,1.9,7.8,4.4,11.2,7.5s5.9,6.3,7.4,9.6
		c1.7,3.6,2.6,7,2.6,10c0,3-0.7,6.4-2.1,10.1c-1.3,3.1-3.3,6.3-5.9,9.7c-2.6,3.4-13.1,9.9-16.2,10.7c-3.1,0.8-6.7,1.2-10.6,1
		c-4-0.2-8.1-1.7-12.5-4.5c-4.4-2.8-8-6.8-11-12.1c-1.7-2.9-2.8-5.3-3.1-7.1c-0.3-1.8-0.4-5-0.2-9.5c0.4-7.2,2-13.3,4.9-18.2
		C7.9,6.6,12,3.2,17.1,1.3z M36.1,11.8c-4.1-1.7-6.4-2.5-6.8-2.5c-1.7-0.1-2.9,6.9-3.6,21c-0.4,8.7-0.3,14.3,0.3,17
		c0.6,2.7,2.1,4.1,4.6,4.2c1.7,0.1,4.3-1.1,7.8-3.5c3.5-2.4,5.8-4.7,6.8-6.7l3.5-6.6c1.1-2.1,1.2-5.2,0.3-9.1
		c-0.9-3.7-2.2-6.5-4-8.5C43.2,15.1,40.2,13.3,36.1,11.8z"/>
</g>
</svg>
