<?xml version="1.0" encoding="utf-8"?>
<!-- Generator: Adobe Illustrator 21.0.0, SVG Export Plug-In . SVG Version: 6.00 Build 0)  -->
<svg version="1.1" id="Layer_1" xmlns="http://www.w3.org/2000/svg" xmlns:xlink="http://www.w3.org/1999/xlink" x="0px" y="0px"
	 width="14.8px" height="4.1px" viewBox="0 0 14.8 4.1" style="enable-background:new 0 0 14.8 4.1;" xml:space="preserve">
<style type="text/css">
	.st0{fill:#FFFFFF;}
</style>
<g>
	<path class="st0" d="M0,3.7c0,0,0.8-0.5,2.2-1c0.7-0.3,1.4-0.6,2.3-0.9c0.8-0.3,1.8-0.6,2.7-0.9C8.1,0.6,9,0.2,9.9,0
		c0.9-0.1,1.8,0,2.5,0.2c0.7,0.2,1.4,0.5,1.8,0.8c0.4,0.3,0.7,0.5,0.7,0.5l0,0.4c0,0-0.2,0.2-0.6,0.5c-0.4,0.3-0.9,0.7-1.6,1
		C12,3.7,11.2,4,10.4,4.1C9.5,4.2,8.5,4,7.6,4C5.8,4,3.9,4,2.5,4C1,4.1,0.1,4.1,0.1,4.1L0,3.7z"/>
</g>
</svg>
