<?xml version="1.0" encoding="utf-8"?>
<!-- Generator: Adobe Illustrator 21.0.0, SVG Export Plug-In . SVG Version: 6.00 Build 0)  -->
<svg version="1.1" id="Layer_1" xmlns="http://www.w3.org/2000/svg" xmlns:xlink="http://www.w3.org/1999/xlink" x="0px" y="0px"
	 width="9.7px" height="4.1px" viewBox="0 0 9.7 4.1" style="enable-background:new 0 0 9.7 4.1;" xml:space="preserve">
<style type="text/css">
	.st0{fill:#FFFFFF;}
</style>
<g>
	<path class="st0" d="M0,2.9c0,0,0.1-0.1,0.4-0.3c0.2-0.2,0.6-0.3,1-0.6c0.9-0.5,2-1,3.2-1.4C5.2,0.5,5.8,0.1,6.4,0
		C7-0.1,7.5,0.1,8,0.3C8.5,0.6,9,0.9,9.2,1.1c0.3,0.3,0.4,0.5,0.4,0.5l0,0.4c0,0-0.2,0.2-0.4,0.5C9,2.9,8.7,3.2,8.3,3.5
		C7.9,3.8,7.4,4.1,6.8,4.1C6.3,4.1,5.6,3.9,5,3.8C4.4,3.8,3.8,3.7,3.2,3.7C2.7,3.6,2.1,3.5,1.7,3.5C1.2,3.4,0.8,3.4,0.5,3.3
		c-0.3,0-0.4,0-0.4,0L0,2.9z"/>
</g>
</svg>
