<?xml version="1.0" encoding="utf-8"?>
<!-- Generator: Adobe Illustrator 21.0.0, SVG Export Plug-In . SVG Version: 6.00 Build 0)  -->
<svg version="1.1" id="Layer_1" xmlns="http://www.w3.org/2000/svg" xmlns:xlink="http://www.w3.org/1999/xlink" x="0px" y="0px"
	 width="177.7px" height="17.3px" viewBox="0 0 177.7 17.3" style="enable-background:new 0 0 177.7 17.3;" xml:space="preserve">
<style type="text/css">
	.st0{fill:#FFFFFF;}
</style>
<g>
	<path class="st0" d="M173.9,0.1c-29,0.5-58.9,2.6-87.7,6C71.9,7.8,57.6,8.3,43.3,9.8c-7.7,0.8-15.4,1.3-23.1,2.1
		c-3.9,0.4-16.8,0.2-18.8,2.5c0.2,0.6,0.9,0.8,2,0.7c-1.4,0-2.6,0.4-3.4,1.1c0.7,3,43.7-1.9,47.9-2.5c12.8-1.7,25.8-2.1,38.6-3.3
		c15.9-1.5,32-1.6,48-3c3.8-0.3,43.1-3.2,43.3-6.8C176.7,0,175.4-0.1,173.9,0.1C171.4,0.2,177.8,0,173.9,0.1z"/>
</g>
</svg>
