<?xml version="1.0" encoding="utf-8"?>
<!-- Generator: Adobe Illustrator 21.0.0, SVG Export Plug-In . SVG Version: 6.00 Build 0)  -->
<svg version="1.1" id="Layer_1" xmlns="http://www.w3.org/2000/svg" xmlns:xlink="http://www.w3.org/1999/xlink" x="0px" y="0px"
	 width="43.8px" height="44.3px" viewBox="0 0 43.8 44.3" style="enable-background:new 0 0 43.8 44.3;" xml:space="preserve">
<style type="text/css">
	.st0{fill:#FFFFFF;}
</style>
<g>
	<path class="st0" d="M9.6,1.6c2.1-1.2,4.6-1.7,7.7-1.5c3.1,0.2,6.1,0.7,9.1,1.7c3,1,5.9,2.4,8.6,4.3c2.7,1.9,4.7,3.9,6.1,6.2
		c1.5,2.4,2.4,4.7,2.7,6.8c0.3,2.1,0,4.6-0.7,7.3c-0.7,2.3-1.8,4.7-3.3,7.4c-1.6,2.6-8.4,8.1-10.5,8.9c-2.1,0.9-4.6,1.4-7.4,1.6
		c-2.8,0.2-5.9-0.5-9.2-2.1c-3.3-1.6-6.2-4.1-8.8-7.6c-1.5-1.9-2.4-3.5-2.8-4.8c-0.4-1.3-0.7-3.5-0.9-6.7C-0.3,18,0.4,13.6,2,9.9
		C3.6,6.1,6.2,3.4,9.6,1.6z M24,7.4c-3-0.8-4.7-1.2-5-1.2c-1.2,0.1-1.4,5.1-0.7,15.1c0.4,6.1,1,10.1,1.6,12c0.6,1.9,1.9,2.7,3.6,2.6
		c1.2-0.1,2.9-1.1,5.2-3.2c2.3-2,3.7-3.8,4.3-5.3l1.9-4.9c0.6-1.6,0.4-3.8-0.6-6.4c-0.9-2.5-2.1-4.4-3.6-5.7C29.3,9.1,27,8.1,24,7.4
		z"/>
</g>
</svg>
