<?xml version="1.0" encoding="utf-8"?>
<!-- Generator: Adobe Illustrator 21.0.0, SVG Export Plug-In . SVG Version: 6.00 Build 0)  -->
<svg version="1.1" id="Layer_1" xmlns="http://www.w3.org/2000/svg" xmlns:xlink="http://www.w3.org/1999/xlink" x="0px" y="0px"
	 width="37.2px" height="45.2px" viewBox="0 0 37.2 45.2" style="enable-background:new 0 0 37.2 45.2;" xml:space="preserve">
<style type="text/css">
	.st0{fill:#FFFFFF;}
</style>
<g>
	<path class="st0" d="M24.8,0.3c4.9-0.9,10.3,0.2,12,5.6c1.2,4-1.1,6-2.7,9.2c-3.1,6.3-6.4,12.5-10.4,18.4c-6,8.9,3.5,3.3,8.2,5.6
		c1.8,0.9,3,3.5,1.5,5.1c-1.9,2-10.4,0.5-13,0.5c-5.5-0.1-21.9,2.8-20.3-6.4c0.7-4,4.8-7.8,7-11.1c3-4.3,5.8-8.8,8.3-13.4
		c7.6-13.7-5-1.8-10.5-8.9C0.2-1.2,20.9,1.1,24.8,0.3C29.2-0.5,23.1,0.7,24.8,0.3z M30.6,9.7c0.1-1.7-4.4,4-5,4.9
		c-1.9,3-3.5,6.3-5.2,9.4C19,26.5,9.3,37.5,10,38.5c1.7,2.8,11.9-12.3,12.9-14C24.3,22.1,30.6,12.7,30.6,9.7
		C30.7,8.4,30.6,9.9,30.6,9.7z"/>
</g>
</svg>
