<?xml version="1.0" encoding="utf-8"?>
<!-- Generator: Adobe Illustrator 21.0.0, SVG Export Plug-In . SVG Version: 6.00 Build 0)  -->
<svg version="1.1" id="Layer_1" xmlns="http://www.w3.org/2000/svg" xmlns:xlink="http://www.w3.org/1999/xlink" x="0px" y="0px"
	 width="10.1px" height="13.3px" viewBox="0 0 10.1 13.3" style="enable-background:new 0 0 10.1 13.3;" xml:space="preserve">
<style type="text/css">
	.st0{fill:#FFFFFF;}
</style>
<g>
	<path class="st0" d="M0,13.1c0,0,0.1-0.3,0.2-0.7c0.1-0.4,0.4-1.1,0.7-1.8c0.3-0.7,0.8-1.6,1.3-2.4c0.5-0.9,1.1-1.7,1.6-2.6
		c0.6-0.8,1-1.8,1.5-2.6c0.6-0.7,1.3-1.2,1.9-1.7C7.5,1.1,7.8,1,8.1,0.8c0.3-0.2,0.6-0.3,0.8-0.4C9.3,0.1,9.7,0,9.7,0L10,0.2
		c0,0,0.1,0.3,0.1,0.9c0,0.6-0.1,1.3-0.3,2.1C9.6,4,9.2,4.9,8.5,5.6C7.9,6.4,7,7,6.2,7.7c-1.5,1.4-3,2.7-4.1,3.8
		c-0.6,0.5-0.9,1-1.3,1.3c-0.3,0.3-0.5,0.5-0.5,0.5L0,13.1z"/>
</g>
</svg>
