<?xml version="1.0" encoding="utf-8"?>
<!-- Generator: Adobe Illustrator 21.0.0, SVG Export Plug-In . SVG Version: 6.00 Build 0)  -->
<svg version="1.1" id="Layer_1" xmlns="http://www.w3.org/2000/svg" xmlns:xlink="http://www.w3.org/1999/xlink" x="0px" y="0px"
	 width="31.2px" height="38.1px" viewBox="0 0 31.2 38.1" style="enable-background:new 0 0 31.2 38.1;" xml:space="preserve">
<style type="text/css">
	.st0{fill:#FFFFFF;}
</style>
<g>
	<path class="st0" d="M2.3,1.2c0.8-1,1.9-1.3,3.4-1.2C7.1,0.2,8.2,0.8,9.1,2c1.1,1.5,1.5,2.6,1.1,3.3c-0.3,0.7-0.1,1,0.6,0.9
		c0.9-0.1,1.9-0.6,3-1.6c2.3-2,5.9-2.4,10.6-1.2c3.7,1,5.9,2.5,6.6,4.3c0.3,0.9,0.1,1.7-0.6,2.5c-0.6,0.7-1.2,1.1-1.8,1.2
		c-0.6,0.1-1.7-0.1-3.4-0.6c-10.8-0.2-12.1,2-14.3,8.5c-0.8,2.5,0.5,9.6,0.6,11.6c0.1,2-0.3,3.7-1.4,5.3c-0.8,1.2-1.4,1.8-1.8,1.9
		C8,38.2,7.2,37.9,6,37.2c-0.7-0.4-1.3-0.9-1.8-1.6C3.7,35,3.4,34.4,3.3,34C3.3,32.7-3.4,6.7,2.3,1.2z"/>
</g>
</svg>
