<?xml version="1.0" encoding="utf-8"?>
<!-- Generator: Adobe Illustrator 21.0.0, SVG Export Plug-In . SVG Version: 6.00 Build 0)  -->
<svg version="1.1" id="Layer_1" xmlns="http://www.w3.org/2000/svg" xmlns:xlink="http://www.w3.org/1999/xlink" x="0px" y="0px"
	 width="37.8px" height="54.6px" viewBox="0 0 37.8 54.6" style="enable-background:new 0 0 37.8 54.6;" xml:space="preserve">
<style type="text/css">
	.st0{fill:#FFFFFF;}
</style>
<g>
	<path class="st0" d="M37.7,38.6c-0.6-5.9-5.9-12.9-11.6-14.7c-3.4-1.1-7.6-0.7-11,0.4C14.3,24.6,8.7,27.6,8,27
		C6.2,25.4,8,14.1,8,12C8,8.7,9.8,1.1,5.5,0.1C0.5-1,1.9,7.6,1.7,10.7c-0.4,6.9-0.9,13.9-1.1,20.8c-0.1,5.9-1.2,13.1,0,18.9
		c1.5,6.9,5,3.2,9.5,2.8c5.6-0.5,10.2,0,15.8-1.9C31.1,49.7,38.4,45.1,37.7,38.6C37.6,37.3,37.9,39.9,37.7,38.6z M27.8,42.9
		c-4.5,4.9-10.7,5.2-16.9,4.4c-3.4-0.4-3.2-0.5-3-3.9c0.2-3.1,0.5-5.9,2.5-8.4c2.8-3.6,8.4-6,12.9-5.6C30.7,30,32.3,37.9,27.8,42.9
		C26.1,44.8,29.9,40.6,27.8,42.9z"/>
</g>
</svg>
