<?xml version="1.0" encoding="utf-8"?>
<!-- Generator: Adobe Illustrator 21.0.0, SVG Export Plug-In . SVG Version: 6.00 Build 0)  -->
<svg version="1.1" id="Layer_1" xmlns="http://www.w3.org/2000/svg" xmlns:xlink="http://www.w3.org/1999/xlink" x="0px" y="0px"
	 width="400px" height="232px" viewBox="0 0 400 232" style="enable-background:new 0 0 400 232;" xml:space="preserve">
<style type="text/css">
	.st0{fill:#EE0033;}
	.st1{fill:#FFFFFF;}
</style>
<g>
	<polygon class="st0" points="400,0 0,45.7 21.9,203.3 64.7,201.1 79.5,232 92.5,199.7 394.9,188.7 	"/>
	<g>
		<path class="st1" d="M124.9,127.1c-6.5-5.6-16.1,1.8-21.7,5.2c-6.7,4.2-13.3,8.8-21.4,9.7c-13.7,1.4-26.1-14.8-26.9-27.3
			c-0.8-11.5-0.7-23,8.7-31.1c6-5.2,14.1-7.7,21.9-8.7c1.8-0.2,4.9-0.9,6.7-0.4c4,1.3,4.1,6.1,7.8,8.4c7.4,4.4,12.9-1.4,9.9-8.8
			c-3-7.2-11.7-11.7-18.8-13.5c-15.7-4-33.1,7.1-43.2,18.6c-11.1,12.6-11.7,32.9-5.2,47.7c6.7,15.3,22.1,30.8,40,29
			c10.2-1,20.4-3.8,29.6-8.4C118.9,144.2,136.5,135.6,124.9,127.1C122.7,125.3,127.2,128.8,124.9,127.1z"/>
		<path class="st1" d="M131.1,61c3.1-1.3,6.8-1.6,11-0.9c4.2,0.7,8.4,2,12.4,3.9c4,1.9,7.8,4.4,11.2,7.5c3.5,3.1,5.9,6.3,7.4,9.6
			c1.7,3.6,2.6,7,2.6,10c0,3-0.7,6.4-2.1,10.1c-1.3,3.1-3.3,6.3-5.9,9.7c-2.6,3.4-13.1,9.9-16.2,10.7c-3.1,0.8-6.7,1.2-10.6,1
			c-4-0.2-8.1-1.7-12.5-4.5c-4.4-2.8-8-6.8-11-12.1c-1.7-2.9-2.8-5.3-3.1-7.1c-0.3-1.8-0.4-5-0.2-9.5c0.4-7.2,2-13.3,4.9-18.2
			C121.9,66.4,125.9,63,131.1,61z M150.1,71.5c-4.1-1.7-6.4-2.5-6.8-2.5c-1.7-0.1-2.9,6.9-3.6,21c-0.4,8.7-0.3,14.3,0.3,17
			c0.6,2.7,2.1,4.1,4.6,4.2c1.7,0.1,4.3-1.1,7.8-3.5c3.5-2.4,5.8-4.7,6.8-6.7l3.5-6.6c1.1-2.1,1.2-5.2,0.3-9.1
			c-0.9-3.7-2.2-6.5-4-8.5C157.2,74.9,154.2,73.1,150.1,71.5z"/>
		<path class="st1" d="M225.7,60.7c-1.5-4-1.3-6.2,0.7-6.5c1.6-0.3,3.4,0.7,5.5,3c1.1,1.3,1.9,2.8,2.4,4.4c0.9,2.5,1.5,5.8,1.6,9.9
			c0.2,4.2-0.1,7.4-0.7,9.7c-0.7,2.5-2.1,8.4-4.6,10c-2.5,1.6-5.2,2.5-8.1,2.7c-2.2,0.2-3.9,0.2-5,0c-1.1-0.3-2.7-0.9-4.7-2.1
			l-4.7-2.7l-3.9,5c-1.7,2.1-3,3.5-3.9,4.2c-0.9,0.7-2.1,1-3.5,1.1c-4.9,0.3-8.6-2-11.1-7c-2.5-5-3.7-12.2-3.4-21.5
			c0.1-4.2,0.7-6.8,1.3-8.2c4.9-11.4,11.1,0.3,11.9,1.4c0.8,1,1.3,1.9,1.4,2.9c0.1,0.9,0,2.5-0.3,4.9c-0.4,3.2-0.4,6.2,0,9.2
			c0.4,3,0.9,4.6,1.7,4.8c0.3,0.1,0.7-0.3,1.3-0.9c0.6-0.7,1.1-1.5,1.7-2.5c0.7-1.5,1.2-3,1.5-4.7c0.3-1.7,0.4-4.2,0.4-7.5
			c-0.1-3.9,0-6.3,0.2-7.2c0.2-0.9,0.8-1.4,1.8-1.6c1.8-0.4,3,0,3.8,1.2s1.4,3.9,2,8.1c0.8,5.4,2,9.4,3.4,12
			c0.9,1.7,1.7,2.8,2.3,3.2c0.6,0.4,1.6,0.6,2.9,0.5c2.2-0.2,4-1.2,5.4-3.3c1.3-2,2.1-4.4,2.4-7.2c0.3-2.8,0.2-5.5,0-8.3
			C227,64.9,226.5,62.6,225.7,60.7z"/>
		<path class="st1" d="M247.8,50.1c2.1-1.2,4.6-1.7,7.7-1.5c3.1,0.2,6.1,0.7,9.1,1.7c3,1,5.9,2.4,8.6,4.3c2.7,1.9,4.7,3.9,6.1,6.2
			c1.5,2.4,2.4,4.7,2.7,6.8c0.3,2.1,0,4.6-0.7,7.3c-0.7,2.3-1.8,4.7-3.3,7.4c-1.6,2.6-8.4,8.1-10.5,8.9c-2.1,0.9-4.6,1.4-7.4,1.6
			c-2.8,0.2-5.9-0.5-9.2-2.1c-3.3-1.6-6.2-4.1-8.8-7.6c-1.5-1.9-2.4-3.5-2.8-4.8c-0.4-1.3-0.7-3.5-0.9-6.7
			c-0.4-5.1,0.3-9.5,1.9-13.3C241.8,54.7,244.3,51.9,247.8,50.1z M262.1,55.9c-3-0.8-4.7-1.2-5-1.2c-1.2,0.1-1.4,5.1-0.7,15.1
			c0.4,6.1,1,10.1,1.6,12c0.6,1.9,1.9,2.7,3.6,2.6c1.2-0.1,2.9-1.1,5.2-3.2c2.3-2,3.7-3.8,4.3-5.3L273,71c0.6-1.6,0.4-3.8-0.6-6.4
			c-0.9-2.5-2.1-4.4-3.6-5.7C267.4,57.7,265.2,56.7,262.1,55.9z"/>
		<path class="st1" d="M293.7,48.4c0.8-1,1.9-1.3,3.4-1.2c1.4,0.2,2.6,0.8,3.5,1.9c1.1,1.5,1.5,2.6,1.1,3.3c-0.3,0.7-0.1,1,0.6,0.9
			c0.9-0.1,1.9-0.6,3-1.6c2.3-2,5.9-2.4,10.6-1.2c3.7,1,5.9,2.5,6.6,4.3c0.3,0.9,0.1,1.7-0.6,2.5c-0.6,0.7-1.2,1.1-1.8,1.2
			c-0.6,0.1-1.7-0.1-3.4-0.6c-10.8-0.2-12.1,2-14.3,8.5c-0.8,2.5,0.5,9.6,0.6,11.6c0.1,2-0.3,3.7-1.4,5.3c-0.8,1.2-1.4,1.8-1.8,1.9
			c-0.4,0.1-1.2-0.2-2.3-0.8c-0.7-0.4-1.3-0.9-1.8-1.6c-0.5-0.7-0.8-1.2-0.8-1.7C294.7,79.9,288.1,53.9,293.7,48.4z"/>
		<path class="st1" d="M327.4,30.4c-0.2-3,1.6-5.8,4.5-6.7c1.2-0.4,2.2-0.6,2.6-0.6c1,0,2,0.5,2.9,1.3c1,1.1,2,6.8,2.8,17
			c0.8,10.2,1.4,15.4,1.6,15.6c0.6,0.6,2.2-0.3,4.7-2.5c2.5-2.2,5-4.5,7.5-7c2.5-2.5,4.1-3.7,4.7-3.6c1,0.2,2.1,1.1,3.3,2.8l0.4,0.6
			c0.8,1.2,0.7,2.7-0.3,3.7l-5.3,5.7c-4.6,4.9-10.3,6.9-10.1,9.8c0.1,0.8,0.9,1.9,2.4,3.1c1.5,1.3,9.5,4.7,10.8,5.1
			c2.7,1,5.1,2.4,7,4.2c1.9,1.8,2.6,3.2,2,4.3c-0.6,1.2-1.4,1.9-2.5,2.1c-1.1,0.2-2.2,0-3.2-0.8c-0.9-0.7-3.3-2-7.4-3.8
			c-4-1.9-6.5-3.1-7.4-3.7c-1-0.7-2.2-1.2-3.4-1.3c-0.8-0.1-1.3,0.1-1.6,0.7c-0.2,0.5-0.4,1.9-0.4,4.2c-0.1,3.4-0.7,5.4-1.7,6.3
			c-0.8,0.7-2.8,1.1-5.7,1.2C333.2,88,328.6,44.8,327.4,30.4z"/>
		<path class="st1" d="M243.2,162.2c-0.6-5.9-5.9-12.9-11.6-14.7c-3.4-1.1-7.6-0.7-11,0.4c-0.9,0.3-6.5,3.3-7.1,2.7
			c-1.8-1.6,0-12.9,0-15.1c0-3.3,1.7-10.9-2.5-11.9c-5-1.1-3.6,7.5-3.8,10.6c-0.4,6.9-0.9,13.9-1.1,20.8c-0.1,5.9-1.2,13.1,0,18.9
			c1.5,6.9,5,3.2,9.5,2.8c5.6-0.5,10.2,0,15.8-1.9C236.6,173.3,243.8,168.7,243.2,162.2C243,160.9,243.3,163.5,243.2,162.2z
			 M233.3,166.5c-4.5,4.9-10.7,5.2-16.9,4.4c-3.4-0.4-3.2-0.5-3-3.9c0.2-3.1,0.5-5.9,2.5-8.4c2.8-3.6,8.4-6,12.9-5.6
			C236.1,153.6,237.8,161.6,233.3,166.5C231.6,168.4,235.4,164.2,233.3,166.5z"/>
		<path class="st1" d="M252,140c0.5-0.7,1-1.2,1.5-1.4c0.6-0.2,1.6-0.2,3.1-0.1c1.3,0.1,2.4,0.2,3.1,0.4c0.7,0.2,1.4,0.5,2,1
			c0.6,0.5,1,1.2,1.1,2.1c0.1,0.9,0.3,2.1,0.5,3.6c0.2,1.5,0.2,3.3,0,5.5c-0.1,3.8-0.1,6.3,0,7.7c0.1,1.3,0.4,2.2,0.9,2.5
			c1.3,1,2.8-0.4,4.4-4.3c1.7-4,2.7-8.8,3.2-14.2c0.1-1.4,0.9-2.2,2.2-2.4c1.3-0.2,2.4,0.3,3.3,1.6c0.5,0.8,0.8,1.9,0.9,3.2
			c0.1,1.4,0.1,2.8-0.1,4.3c-0.2,1.5-0.3,3.2-0.4,5.3c-0.1,2.1-0.1,3.9,0.1,5.6l0.4,3.3l3.1-0.3c2.1-0.3,3.4,0,4.1,0.9
			c0.5,0.5,0.7,1,0.6,1.4c-0.1,0.4-0.7,1.1-1.8,2.1c-1.4,1.4-3,2.2-4.7,2.4c-1.7,0.2-3.1-0.2-4.2-1.4c-1.8-1.8-3.9-1.8-6.5,0.1
			c-1.6,1.2-3.6,2.1-5.9,2.7c-2.3,0.6-4.2,0.7-5.5,0.2c-4.2-1.5-6.5-4.6-7.1-9.1c-0.3-2.8-0.3-7,0.1-12.6
			C250.9,144.4,251.4,141.1,252,140z"/>
		<path class="st1" d="M305,132.4c16.7-4.6,6.3,16.4,3.2,22.4c-0.6,1.1-4.3,6.4-3.5,7.4c1.7,2.2,7.5-1.8,9.2,0.5
			c3.6,4.6-5.3,4-7.9,4.3c-3.2,0.3-14.4,2.8-17,0.3c-6.8-6.7,14.3-21.8,11.4-29.1c-0.8-1.7-13.9,2.9-11.6-3.2
			C289.9,132.7,303.1,133,305,132.4C308.4,131.5,303.7,132.8,305,132.4z M307.5,146.8c0,1-13,14.3-11.6,16.2
			C296.8,164.2,307.7,149.4,307.5,146.8C307.5,145.9,307.6,147,307.5,146.8z"/>
		<path class="st1" d="M341.5,126.1c4.9-0.9,10.3,0.2,12,5.6c1.2,4-1.1,6-2.7,9.2c-3.1,6.3-6.4,12.5-10.4,18.4
			c-6,8.9,3.5,3.3,8.2,5.6c1.8,0.9,3,3.5,1.5,5.1c-1.9,2-10.4,0.5-13,0.5c-5.5-0.1-21.9,2.8-20.3-6.4c0.7-4,4.8-7.8,7-11.1
			c3-4.3,5.8-8.8,8.3-13.4c7.6-13.7-5-1.8-10.5-8.9C316.8,124.6,337.5,126.9,341.5,126.1C345.9,125.3,339.8,126.5,341.5,126.1z
			 M347.3,135.5c0.1-1.7-4.4,4-5,4.9c-1.9,3-3.5,6.3-5.2,9.4c-1.4,2.5-11.1,13.5-10.5,14.5c1.7,2.8,11.9-12.3,12.9-14
			C340.9,147.9,347.2,138.5,347.3,135.5C347.3,134.2,347.3,135.7,347.3,135.5z"/>
		<path class="st1" d="M368.3,99.5c-29,0.5-58.9,2.6-87.7,6c-14.3,1.7-28.6,2.2-42.9,3.7c-7.7,0.8-15.4,1.3-23.1,2.1
			c-3.9,0.4-16.8,0.2-18.8,2.5c0.2,0.6,0.9,0.8,2,0.7c-1.4,0-2.6,0.4-3.4,1.1c0.7,3,43.7-1.9,47.9-2.5c12.8-1.7,25.8-2.1,38.6-3.3
			c15.9-1.5,32-1.6,48-3c3.8-0.3,43.1-3.2,43.3-6.8C371.1,99.4,369.8,99.3,368.3,99.5C365.8,99.6,372.2,99.4,368.3,99.5z"/>
		<path class="st1" d="M356,125.3c0,0,0.1-0.3,0.2-0.7c0.1-0.4,0.4-1.1,0.7-1.8c0.3-0.7,0.8-1.6,1.3-2.4c0.5-0.9,1.1-1.7,1.6-2.6
			c0.6-0.8,1-1.8,1.5-2.6c0.6-0.7,1.3-1.2,1.9-1.7c0.3-0.2,0.6-0.4,0.9-0.6c0.3-0.2,0.6-0.3,0.8-0.4c0.4-0.2,0.8-0.4,0.8-0.4
			l0.4,0.2c0,0,0.1,0.3,0.1,0.9c0,0.6-0.1,1.3-0.3,2.1c-0.3,0.8-0.7,1.7-1.3,2.5c-0.6,0.8-1.6,1.3-2.3,2c-1.5,1.4-3,2.7-4.1,3.8
			c-0.6,0.5-0.9,1-1.3,1.3c-0.3,0.3-0.5,0.5-0.5,0.5L356,125.3z"/>
		<path class="st1" d="M360.7,129.3c0,0,0.8-0.5,2.2-1c0.7-0.3,1.4-0.6,2.3-0.9c0.8-0.3,1.8-0.6,2.7-0.9c0.9-0.3,1.8-0.7,2.7-0.8
			c0.9-0.1,1.8,0,2.5,0.2c0.7,0.2,1.4,0.5,1.8,0.8c0.4,0.3,0.7,0.5,0.7,0.5l0,0.4c0,0-0.2,0.2-0.6,0.5c-0.4,0.3-0.9,0.7-1.6,1
			c-0.7,0.3-1.4,0.6-2.3,0.7c-0.9,0.1-1.8-0.1-2.7-0.1c-1.9,0-3.7,0-5.1,0c-1.4,0-2.4,0.1-2.4,0.1L360.7,129.3z"/>
		<path class="st1" d="M361,136.7c0,0,0.1-0.1,0.4-0.3c0.2-0.2,0.6-0.3,1-0.6c0.9-0.5,2-1,3.2-1.4c0.6-0.2,1.2-0.6,1.8-0.7
			c0.6-0.1,1.2,0.1,1.6,0.3c0.5,0.2,0.9,0.5,1.2,0.8c0.3,0.3,0.4,0.5,0.4,0.5l0,0.4c0,0-0.2,0.2-0.4,0.5c-0.2,0.3-0.6,0.6-1,0.9
			c-0.4,0.3-0.9,0.6-1.5,0.6c-0.6,0-1.2-0.2-1.8-0.3c-0.6-0.1-1.2-0.1-1.8-0.2c-0.6-0.1-1.1-0.1-1.6-0.2c-0.5-0.1-0.8-0.1-1.1-0.1
			c-0.3,0-0.4,0-0.4,0L361,136.7z"/>
	</g>
</g>
</svg>
