<?xml version="1.0" encoding="utf-8"?>
<!-- Generator: Adobe Illustrator 21.0.0, SVG Export Plug-In . SVG Version: 6.00 Build 0)  -->
<svg version="1.1" id="Layer_1" xmlns="http://www.w3.org/2000/svg" xmlns:xlink="http://www.w3.org/1999/xlink" x="0px" y="0px"
	 width="35.9px" height="33.6px" viewBox="0 0 35.9 33.6" style="enable-background:new 0 0 35.9 33.6;" xml:space="preserve">
<style type="text/css">
	.st0{fill:#FFFFFF;}
</style>
<g>
	<path class="st0" d="M1.9,1.5c0.5-0.7,1-1.2,1.5-1.4C4,0,5,0,6.6,0.1c1.3,0.1,2.4,0.2,3.1,0.4c0.7,0.2,1.4,0.5,2,1
		c0.6,0.5,1,1.2,1.1,2.1c0.1,0.9,0.3,2.1,0.5,3.6s0.2,3.3,0,5.5c-0.1,3.8-0.1,6.3,0,7.7c0.1,1.3,0.4,2.2,0.9,2.5
		c1.3,1,2.8-0.4,4.4-4.3c1.7-4,2.7-8.8,3.2-14.2C21.8,3,22.5,2.2,23.9,2c1.3-0.2,2.4,0.3,3.3,1.6c0.5,0.8,0.8,1.9,0.9,3.2
		c0.1,1.4,0.1,2.8-0.1,4.3c-0.2,1.5-0.3,3.2-0.4,5.3c-0.1,2.1-0.1,3.9,0.1,5.6l0.4,3.3l3.1-0.3c2.1-0.3,3.4,0,4.1,0.9
		c0.5,0.5,0.7,1,0.6,1.4c-0.1,0.4-0.7,1.1-1.8,2.1c-1.4,1.4-3,2.2-4.7,2.4c-1.7,0.2-3.1-0.2-4.2-1.4c-1.8-1.8-3.9-1.8-6.5,0.1
		c-1.6,1.2-3.6,2.1-5.9,2.7c-2.3,0.6-4.2,0.7-5.5,0.2c-4.2-1.5-6.5-4.6-7.1-9.1c-0.3-2.8-0.3-7,0.1-12.6C0.7,5.9,1.2,2.6,1.9,1.5z"
		/>
</g>
</svg>
