<?xml version="1.0" encoding="utf-8"?>
<!-- Generator: Adobe Illustrator 21.0.0, SVG Export Plug-In . SVG Version: 6.00 Build 0)  -->
<svg version="1.1" id="Layer_1" xmlns="http://www.w3.org/2000/svg" xmlns:xlink="http://www.w3.org/1999/xlink" x="0px" y="0px"
	 width="41.8px" height="64.8px" viewBox="0 0 41.8 64.8" style="enable-background:new 0 0 41.8 64.8;" xml:space="preserve">
<style type="text/css">
	.st0{fill:#FFFFFF;}
</style>
<g>
	<path class="st0" d="M0,7.3c-0.2-3,1.6-5.8,4.5-6.7C5.7,0.2,6.8,0,7.2,0c1,0,2,0.5,2.9,1.3c1,1.1,2,6.8,2.8,17
		c0.8,10.2,1.4,15.4,1.6,15.6c0.6,0.6,2.2-0.3,4.7-2.5c2.5-2.2,5-4.5,7.5-7c2.5-2.5,4.1-3.7,4.7-3.6c1,0.2,2.1,1.1,3.3,2.8l0.4,0.6
		c0.8,1.2,0.7,2.7-0.3,3.7l-5.3,5.7c-4.6,4.9-10.3,6.9-10.1,9.8c0.1,0.8,0.9,1.9,2.4,3.1c1.5,1.3,9.5,4.7,10.8,5.1
		c2.7,1,5.1,2.4,7,4.2c1.9,1.8,2.6,3.2,2,4.3C41,61.3,40.1,62,39,62.2c-1.1,0.2-2.2,0-3.2-0.8c-0.9-0.7-3.3-2-7.4-3.8
		s-6.5-3.1-7.4-3.7c-1-0.7-2.2-1.2-3.4-1.3c-0.8-0.1-1.3,0.1-1.6,0.7c-0.2,0.5-0.4,1.9-0.4,4.2c-0.1,3.4-0.7,5.4-1.7,6.3
		c-0.8,0.7-2.8,1.1-5.7,1.2C5.8,64.9,1.2,21.8,0,7.3z"/>
</g>
</svg>
