<?xml version="1.0" encoding="utf-8"?>
<!-- Generator: Adobe Illustrator 15.1.0, SVG Export Plug-In . SVG Version: 6.00 Build 0)  -->
<!DOCTYPE svg PUBLIC "-//W3C//DTD SVG 1.1//EN" "http://www.w3.org/Graphics/SVG/1.1/DTD/svg11.dtd">
<svg version="1.1" id="Capa_1" xmlns="http://www.w3.org/2000/svg" xmlns:xlink="http://www.w3.org/1999/xlink" x="0px" y="0px"
	 width="164.3px" height="124.5px" viewBox="0 0 164.3 124.5" enable-background="new 0 0 164.3 124.5" xml:space="preserve">
<path fill="#0112FF" d="M9.765,1.3c2.466,0,4.29,0.763,5.967,2.29c0.221,0.196,0.221,0.492,0.024,0.689l-1.923,1.994
	c-0.172,0.173-0.443,0.173-0.617,0c-0.912-0.812-2.12-1.255-3.328-1.255c-2.787,0-4.833,2.314-4.833,5.071
	c0,2.732,2.071,4.997,4.857,4.997c1.159,0,2.416-0.418,3.303-1.182c0.173-0.147,0.494-0.147,0.642,0.024l1.923,2.043
	c0.172,0.172,0.148,0.492-0.024,0.665c-1.677,1.625-3.797,2.388-5.991,2.388c-4.931,0-8.9-3.914-8.9-8.837
	C0.865,5.263,4.834,1.3,9.765,1.3"/>
<path fill="#0112FF" d="M26.23,1.3c4.931,0,8.875,3.963,8.875,8.886s-3.945,8.837-8.875,8.837s-8.851-3.914-8.851-8.837
	S21.3,1.3,26.23,1.3 M26.23,15.085c2.711,0,4.931-2.215,4.931-4.898c0-2.708-2.219-4.948-4.931-4.948
	c-2.687,0-4.906,2.24-4.906,4.948C21.325,12.87,23.543,15.085,26.23,15.085"/>
<path fill="#0112FF" d="M36.433,2.137c-0.098-0.345,0.099-0.591,0.444-0.591h2.884c0.198,0,0.396,0.173,0.444,0.345l2.121,8.345
	h0.098l3.822-8.664C46.319,1.423,46.467,1.3,46.664,1.3h0.444c0.222,0,0.37,0.124,0.419,0.271l3.822,8.664h0.099l2.12-8.345
	c0.05-0.172,0.248-0.345,0.444-0.345h2.885c0.345,0,0.542,0.247,0.443,0.591l-4.66,16.543c-0.05,0.197-0.247,0.345-0.444,0.345
	h-0.395c-0.173,0-0.345-0.124-0.419-0.271L46.911,8.685h-0.074L42.35,18.753c-0.074,0.147-0.247,0.271-0.419,0.271h-0.395
	c-0.198,0-0.395-0.148-0.444-0.345L36.433,2.137z"/>
<path fill="#0112FF" d="M67.516,1.3c4.932,0,8.876,3.963,8.876,8.886s-3.944,8.837-8.876,8.837c-4.931,0-8.851-3.914-8.851-8.837
	C58.666,5.263,62.585,1.3,67.516,1.3 M67.516,15.085c2.713,0,4.932-2.215,4.932-4.898c0-2.708-2.219-4.948-4.932-4.948
	c-2.688,0-4.906,2.24-4.906,4.948C62.61,12.87,64.829,15.085,67.516,15.085"/>
<path fill="#0112FF" d="M79.37,2.014c0-0.247,0.198-0.468,0.469-0.468h7.372c2.959,0,5.375,2.387,5.375,5.317
	c0,2.265-1.504,4.086-3.648,4.948l3.378,6.253c0.173,0.32,0,0.713-0.419,0.713h-3.279c-0.197,0-0.346-0.123-0.395-0.222
	l-3.279-6.523h-1.701v6.277c0,0.246-0.222,0.468-0.468,0.468h-2.935c-0.271,0-0.469-0.222-0.469-0.468V2.014L79.37,2.014z
	 M86.889,8.906c1.012,0,1.875-0.935,1.875-1.969c0-1.035-0.863-1.871-1.875-1.871h-3.647v3.84H86.889z"/>
<path fill="#0112FF" d="M95.884,2.137c0-0.32,0.246-0.591,0.593-0.591h2.884c0.32,0,0.592,0.271,0.592,0.591v6.474l5.475-6.819
	c0.099-0.123,0.32-0.247,0.468-0.247H109c0.469,0,0.715,0.542,0.444,0.911l-5.771,7.212l6.287,8.172c0.271,0.37,0,0.911-0.469,0.911
	h-3.4c-0.174,0-0.396-0.099-0.444-0.172l-5.694-7.729v7.335c0,0.32-0.271,0.591-0.593,0.591h-2.884
	c-0.346,0-0.592-0.271-0.592-0.591V2.137L95.884,2.137z"/>
<path fill="#0112FF" d="M112.473,2.014c0-0.247,0.222-0.468,0.469-0.468h2.958c0.247,0,0.469,0.221,0.469,0.468V18.31
	c0,0.246-0.222,0.468-0.469,0.468h-2.958c-0.247,0-0.469-0.222-0.469-0.468V2.014z"/>
<path fill="#0112FF" d="M120.583,1.743c0-0.246,0.222-0.443,0.467-0.443h0.617l9.838,9.453h0.023V2.014
	c0-0.246,0.196-0.468,0.469-0.468h2.959c0.246,0,0.469,0.222,0.469,0.468v16.567c0,0.246-0.223,0.443-0.469,0.443h-0.396
	c-0.074,0-0.271-0.074-0.319-0.124l-9.738-9.772h-0.025v9.182c0,0.247-0.197,0.468-0.469,0.468h-2.934
	c-0.246,0-0.47-0.221-0.47-0.468L120.583,1.743z"/>
<path fill="#0112FF" d="M147.278,1.325c2.071,0,4.341,0.861,6.017,2.314c0.223,0.172,0.246,0.467,0.049,0.665l-1.947,2.067
	c-0.197,0.173-0.468,0.173-0.666,0.025c-0.938-0.862-2.021-1.182-3.229-1.182c-2.688,0-4.857,2.265-4.857,4.972
	c0,2.683,2.193,4.898,4.881,4.898c0.715,0,1.455-0.098,2.195-0.394v-1.428h-1.555c-0.271,0-0.469-0.197-0.469-0.442v-2.438
	c0-0.271,0.198-0.468,0.469-0.468h4.957c0.246,0,0.442,0.222,0.442,0.468l0.024,6.622c0,0.124-0.1,0.32-0.197,0.394
	c0,0-2.539,1.6-6.114,1.6c-4.905,0-8.853-3.889-8.853-8.813C138.425,5.261,142.373,1.325,147.278,1.325"/>
<path fill="#0112FF" d="M1.136,45.416l1.159-2.043c0.197-0.32,0.666-0.271,0.838-0.148c0.099,0.049,1.874,1.354,3.5,1.354
	c0.987,0,1.702-0.616,1.702-1.477c0-1.034-0.863-1.822-2.54-2.486c-2.12-0.837-4.783-2.486-4.783-5.44
	c0-2.437,1.898-4.899,5.695-4.899c2.564,0,4.537,1.305,5.276,1.846c0.296,0.172,0.247,0.616,0.148,0.788l-1.257,1.896
	c-0.172,0.271-0.616,0.492-0.838,0.32C9.814,35.004,8.015,33.65,6.51,33.65c-0.887,0-1.553,0.59-1.553,1.255
	c0,0.911,0.74,1.6,2.688,2.388c1.923,0.763,4.98,2.265,4.98,5.613c0,2.535-2.194,5.096-5.819,5.096c-3.205,0-4.979-1.33-5.546-1.896
	C1.013,45.859,0.938,45.76,1.136,45.416"/>
<path fill="#0112FF" d="M15.629,30.991c0-0.247,0.197-0.468,0.468-0.468h5.942c3.033,0,5.522,2.461,5.522,5.44
	c0,3.052-2.49,5.539-5.498,5.539h-2.589v5.785c0,0.246-0.221,0.467-0.468,0.467h-2.909c-0.271,0-0.468-0.221-0.468-0.467V30.991z
	 M21.817,37.908c1.061,0,1.948-0.837,1.948-1.945c0-1.034-0.887-1.821-1.948-1.821h-2.342v3.766H21.817z"/>
<path fill="#0112FF" d="M26.942,47.114l7.717-16.567c0.074-0.148,0.247-0.271,0.419-0.271h0.247c0.172,0,0.345,0.123,0.419,0.271
	l7.716,16.567c0.148,0.319-0.049,0.639-0.418,0.639h-2.737c-0.444,0-0.641-0.147-0.863-0.615l-0.888-1.945h-6.706l-0.888,1.969
	c-0.124,0.295-0.395,0.59-0.887,0.59h-2.712C26.992,47.753,26.794,47.434,26.942,47.114 M37.075,41.846l-1.874-4.062h-0.024
	l-1.85,4.062H37.075z"/>
<path fill="#0112FF" d="M45.478,30.99c0-0.246,0.222-0.468,0.469-0.468h2.958c0.247,0,0.469,0.222,0.469,0.468v16.296
	c0,0.246-0.222,0.468-0.469,0.468h-2.958c-0.247,0-0.469-0.222-0.469-0.468V30.99z"/>
<path fill="#0112FF" d="M53.587,30.72c0-0.246,0.222-0.443,0.468-0.443h0.617l9.838,9.453h0.023v-8.74
	c0-0.246,0.197-0.468,0.469-0.468h2.958c0.247,0,0.469,0.222,0.469,0.468v16.567c0,0.246-0.222,0.443-0.469,0.443h-0.395
	c-0.073,0-0.271-0.074-0.32-0.124l-9.738-9.772h-0.024v9.182c0,0.246-0.197,0.467-0.469,0.467H54.08
	c-0.246,0-0.469-0.221-0.469-0.467L53.587,30.72z"/>
<path fill="#0112FF" d="M9.765,59.254c2.466,0,4.29,0.763,5.967,2.289c0.221,0.196,0.221,0.492,0.024,0.688l-1.923,1.994
	c-0.172,0.174-0.443,0.174-0.617,0c-0.912-0.813-2.12-1.256-3.328-1.256c-2.787,0-4.833,2.314-4.833,5.072
	c0,2.732,2.071,4.996,4.857,4.996c1.159,0,2.416-0.418,3.303-1.182c0.173-0.146,0.494-0.146,0.642,0.024l1.923,2.043
	c0.172,0.173,0.148,0.492-0.024,0.664c-1.677,1.625-3.797,2.39-5.991,2.39c-4.931,0-8.9-3.914-8.9-8.838
	C0.865,63.217,4.834,59.254,9.765,59.254"/>
<path fill="#0112FF" d="M26.23,59.253c4.931,0,8.875,3.964,8.875,8.888s-3.945,8.838-8.875,8.838s-8.851-3.914-8.851-8.838
	S21.3,59.253,26.23,59.253 M26.23,73.038c2.711,0,4.931-2.215,4.931-4.897c0-2.707-2.219-4.947-4.931-4.947
	c-2.687,0-4.906,2.24-4.906,4.947C21.325,70.823,23.543,73.038,26.23,73.038"/>
<path fill="#0112FF" d="M38.06,59.696c0-0.246,0.222-0.442,0.468-0.442h0.616l9.837,9.452h0.025v-8.738
	c0-0.247,0.197-0.469,0.468-0.469h2.958c0.247,0,0.469,0.222,0.469,0.469v16.566c0,0.245-0.222,0.442-0.469,0.442h-0.395
	c-0.073,0-0.271-0.074-0.32-0.123l-9.738-9.772h-0.024v9.183c0,0.246-0.198,0.469-0.469,0.469h-2.934
	c-0.246,0-0.468-0.223-0.468-0.469L38.06,59.696z"/>
<path fill="#0112FF" d="M57.137,59.968c0-0.246,0.197-0.469,0.469-0.469h10.207c0.271,0,0.468,0.223,0.468,0.469v2.683
	c0,0.248-0.196,0.468-0.468,0.468h-6.83v3.545h5.621c0.247,0,0.469,0.221,0.469,0.468v2.683c0,0.246-0.222,0.47-0.469,0.47h-5.621
	v5.979c0,0.247-0.221,0.469-0.469,0.469h-2.908c-0.271,0-0.469-0.222-0.469-0.469V59.968z"/>
<path fill="#0112FF" d="M71.014,59.968c0-0.246,0.197-0.469,0.469-0.469H81.69c0.271,0,0.468,0.223,0.468,0.469v2.683
	c0,0.248-0.196,0.468-0.468,0.468h-6.83v3.053h5.621c0.247,0,0.469,0.221,0.469,0.467v2.685c0,0.271-0.222,0.469-0.469,0.469H74.86
	v3.322h6.83c0.271,0,0.468,0.222,0.468,0.469v2.683c0,0.246-0.196,0.469-0.468,0.469H71.483c-0.271,0-0.469-0.223-0.469-0.469
	V59.968z"/>
<path fill="#0112FF" d="M85.458,59.968c0-0.246,0.196-0.469,0.469-0.469h7.371c2.959,0,5.375,2.389,5.375,5.317
	c0,2.265-1.504,4.086-3.648,4.947l3.377,6.252c0.174,0.32,0,0.715-0.419,0.715h-3.278c-0.197,0-0.346-0.123-0.395-0.222
	l-3.279-6.522H89.33v6.275c0,0.247-0.223,0.469-0.469,0.469h-2.934c-0.271,0-0.469-0.222-0.469-0.469V59.968z M92.977,66.859
	c1.012,0,1.874-0.936,1.874-1.969c0-1.035-0.862-1.871-1.874-1.871H89.33v3.84H92.977z"/>
<path fill="#0112FF" d="M101.972,59.968c0-0.246,0.197-0.469,0.469-0.469h10.206c0.271,0,0.47,0.223,0.47,0.469v2.683
	c0,0.248-0.197,0.468-0.47,0.468h-6.828v3.053h5.621c0.246,0,0.47,0.221,0.47,0.467v2.685c0,0.271-0.224,0.469-0.47,0.469h-5.621
	v3.322h6.828c0.271,0,0.47,0.222,0.47,0.469v2.683c0,0.246-0.197,0.469-0.47,0.469h-10.206c-0.271,0-0.469-0.223-0.469-0.469V59.968
	z"/>
<path fill="#0112FF" d="M116.391,59.696c0-0.246,0.223-0.442,0.469-0.442h0.617l9.837,9.452h0.023v-8.738
	c0-0.247,0.197-0.469,0.47-0.469h2.958c0.247,0,0.468,0.222,0.468,0.469v16.566c0,0.245-0.221,0.442-0.468,0.442h-0.395
	c-0.074,0-0.271-0.074-0.322-0.123l-9.737-9.772h-0.022v9.183c0,0.246-0.197,0.469-0.47,0.469h-2.935
	c-0.246,0-0.469-0.223-0.469-0.469L116.391,59.696z"/>
<path fill="#0112FF" d="M143.112,59.254c2.468,0,4.291,0.763,5.968,2.289c0.221,0.196,0.221,0.492,0.023,0.688l-1.923,1.994
	c-0.173,0.174-0.443,0.174-0.616,0c-0.912-0.813-2.12-1.256-3.328-1.256c-2.785,0-4.833,2.314-4.833,5.072
	c0,2.732,2.072,4.996,4.856,4.996c1.158,0,2.416-0.418,3.305-1.182c0.173-0.146,0.493-0.146,0.643,0.024l1.922,2.043
	c0.172,0.173,0.147,0.492-0.024,0.664c-1.677,1.625-3.796,2.39-5.991,2.39c-4.931,0-8.898-3.914-8.898-8.838
	C134.212,63.217,138.181,59.254,143.112,59.254"/>
<path fill="#0112FF" d="M152.057,59.968c0-0.246,0.196-0.469,0.469-0.469h10.207c0.271,0,0.47,0.223,0.47,0.469v2.683
	c0,0.248-0.197,0.468-0.47,0.468h-6.83v3.053h5.622c0.247,0,0.469,0.221,0.469,0.467v2.685c0,0.271-0.222,0.469-0.469,0.469h-5.622
	v3.322h6.83c0.271,0,0.47,0.222,0.47,0.469v2.683c0,0.246-0.197,0.469-0.47,0.469h-10.207c-0.271,0-0.469-0.223-0.469-0.469V59.968z
	"/>
<path fill="#0112FF" d="M0.569,122.814c1.43-1.869,5.079-6.817,6.533-9.032c0.321-0.492,0.642-1.183,0.642-1.871
	c0-0.937-0.79-1.772-2.17-1.772c-1.011,0-1.923,0.715-2.391,1.231c-0.197,0.196-0.493,0.196-0.69,0l-1.504-1.527
	c-0.172-0.146-0.197-0.442-0.024-0.639c0,0,1.998-2.413,4.931-2.413c3.525,0,5.596,2.24,5.596,4.973c0,1.305-0.37,2.043-0.961,3.2
	c-0.789,1.402-2.811,4.037-3.97,5.661h4.34c0.246,0,0.468,0.223,0.468,0.468v2.216c0,0.246-0.222,0.469-0.468,0.469H1.038
	c-0.271,0-0.469-0.223-0.469-0.469V122.814z"/>
<path fill="#0112FF" d="M14.052,115.407c0-5.392,2.292-8.616,6.311-8.616s6.312,3.225,6.312,8.616c0,5.391-2.293,8.614-6.312,8.614
	S14.052,120.798,14.052,115.407 M22.705,115.407c0-3.226-0.838-5.048-2.342-5.048c-1.503,0-2.342,1.822-2.342,5.048
	c0,3.249,0.839,5.045,2.342,5.045C21.867,120.452,22.705,118.656,22.705,115.407"/>
<path fill="#0112FF" d="M31.479,112.23h-2.367c-0.247,0-0.444-0.222-0.444-0.467v-1.553c0-0.098,0.074-0.295,0.148-0.369l3.6-2.805
	h2.269c0.246,0,0.443,0.221,0.443,0.467v15.803c0,0.248-0.197,0.469-0.443,0.469h-2.737c-0.271,0-0.468-0.221-0.468-0.469
	L31.479,112.23L31.479,112.23z"/>
<path fill="#0112FF" d="M40.302,121.167c1.159-0.369,4.438-1.502,4.956-4.037c-0.642,0.271-1.677,0.492-2.342,0.492
	c-2.318,0-4.906-1.698-4.906-5.343c0-3.102,2.564-5.637,5.646-5.637c3.822,0,5.942,2.855,5.942,6.695
	c0,7.238-6.016,10.167-8.284,10.831c-0.37,0.099-0.641-0.05-0.764-0.394l-0.715-1.896C39.735,121.585,39.81,121.314,40.302,121.167
	 M46.072,112.402c0-1.278-1.061-2.362-2.367-2.362c-1.307,0-2.368,1.084-2.368,2.362c0,1.306,1.061,2.389,2.368,2.389
	C45.011,114.791,46.072,113.708,46.072,112.402"/>
<path fill="#0112FF" d="M16.442,89.771c-0.234,1.396-0.699,2.791-1.491,3.814c-0.745,1.023-1.863,2.047-3.399,2.047
	c-1.305,0-2.563-0.465-3.727-1.07c-1.165-0.604-2.282-0.977-3.261-0.977c-1.164,0-1.63,1.07-1.816,2.047H0
	c0.326-2.512,1.956-5.861,4.844-5.861c1.35,0,2.608,0.697,3.727,1.211c1.117,0.512,2.142,1.022,2.887,1.022
	c1.304,0,2.003-0.837,2.143-2.233H16.442z"/>
</svg>
