<?xml version="1.0" encoding="UTF-8" standalone="no"?>
<svg width="226px" height="111px" viewBox="0 0 226 111" version="1.1" xmlns="http://www.w3.org/2000/svg" xmlns:xlink="http://www.w3.org/1999/xlink" xmlns:sketch="http://www.bohemiancoding.com/sketch/ns">
    <!-- Generator: Sketch 3.5.2 (25235) - http://www.bohemiancoding.com/sketch -->
    <title>logo</title>
    <desc>Created with Sketch.</desc>
    <defs></defs>
    <g id="Page-1" stroke="none" stroke-width="1" fill="none" fill-rule="evenodd" sketch:type="MSPage">
        <g id="logo" sketch:type="MSLayerGroup" fill="#3B3B3B">
            <g id="Page-1" sketch:type="MSShapeGroup">
                <path d="M178.352282,56.1078348 L159.950446,101.252552 C157.550572,107.140097 151.865824,110.699823 145.875577,110.677892 C139.880089,110.700339 134.191318,107.13473 131.79463,101.240458 L113.432889,56.0826792 L111.352439,61.186571 C111.327195,61.2484994 111.301589,61.3101702 111.275622,61.3715819 L95.0205763,101.252233 C92.6232472,107.133917 86.9475882,110.692533 80.9639761,110.677948 C74.9805085,110.692512 69.3049642,107.134053 66.9075536,101.252552 L48.4630203,56.0030861 L30.0150235,101.274136 C26.8608504,109.01442 18.029148,112.732197 10.2888643,109.578024 C2.5485805,106.42385 -1.1691967,97.592148 1.98497647,89.8518643 L34.4069765,10.2888643 C36.8036151,4.40755664 42.4781363,0.848615677 48.4611162,0.862044608 C54.4434469,0.848713844 60.1174488,4.40696005 62.5144464,10.2874481 L80.9635454,55.5481148 L83.3224237,49.7607669 C83.3477596,49.698607 83.3734616,49.6367067 83.3995263,49.5750673 L99.4135614,10.288429 C101.747964,4.56152543 107.190432,1.03715151 112.998865,0.869285834 C119.144137,0.677880806 125.039901,4.27054545 127.49137,10.2995416 L145.892239,55.5535501 L164.343554,10.2874481 C166.799481,4.26239026 172.695521,0.675160885 178.838619,0.86952241 C184.651302,1.04074551 190.094862,4.57336825 192.423131,10.3073363 L213.382131,61.9243363 C213.407293,61.9863059 213.432016,62.0483448 213.4563,62.1104496 L224.766022,89.9620696 C227.910693,97.7062188 224.18208,106.533352 216.43793,109.678022 C208.693781,112.822693 199.866648,109.09408 196.721978,101.34993 L185.336978,73.3129304 C185.31174,73.2507795 185.286945,73.188559 185.262591,73.1262721 L178.352282,56.1078348 L178.352282,56.1078348 L178.352282,56.1078348 Z" id="logo"></path>
            </g>
        </g>
    </g>
</svg>